HIERARCHY
ROOT joint_0
{
	OFFSET 0.000000 0.000000 0.000000
	CHANNELS 6 Xposition Yposition Zposition Zrotation Yrotation Xrotation 
	JOINT joint_1
	{
		OFFSET 7.745728 2.152245 124.869995
		CHANNELS 3 Zrotation Yrotation Xrotation
		JOINT joint_2
		{
			OFFSET -6.359406 2.617477 113.975952
			CHANNELS 3 Zrotation Yrotation Xrotation
			JOINT joint_3
			{
				OFFSET -8.187927 3.340103 113.713013
				CHANNELS 3 Zrotation Yrotation Xrotation
				JOINT joint_4
				{
					OFFSET 2.859222 5.755905 159.680054
					CHANNELS 3 Zrotation Yrotation Xrotation
					JOINT joint_5
					{
						OFFSET 22.724274 2.598469 88.906982
						CHANNELS 3 Zrotation Yrotation Xrotation
						End Site
						{
							OFFSET 0.000000 0.000000 0.000000
						}
					}
				}
				JOINT joint_6
				{
					OFFSET 2.312134 -31.513222 90.723022
					CHANNELS 3 Zrotation Yrotation Xrotation
					JOINT joint_7
					{
						OFFSET -0.486389 -150.827950 -17.660034
						CHANNELS 3 Zrotation Yrotation Xrotation
						JOINT joint_8
						{
							OFFSET 15.633850 -16.961029 -297.395020
							CHANNELS 3 Zrotation Yrotation Xrotation
							JOINT joint_9
							{
								OFFSET 5.600098 1.609863 -262.782959
								CHANNELS 3 Zrotation Yrotation Xrotation
								End Site
								{
									OFFSET 0.000000 0.000000 0.000000
								}
							}
						}
					}
				}
				JOINT joint_10
				{
					OFFSET 1.012756 37.963039 88.243042
					CHANNELS 3 Zrotation Yrotation Xrotation
					JOINT joint_11
					{
						OFFSET -2.397430 150.471996 -20.492065
						CHANNELS 3 Zrotation Yrotation Xrotation
						JOINT joint_12
						{
							OFFSET -10.575745 12.779427 -297.765015
							CHANNELS 3 Zrotation Yrotation Xrotation
							JOINT joint_13
							{
								OFFSET 196.311081 2.689713 -176.286011
								CHANNELS 3 Zrotation Yrotation Xrotation
								End Site
								{
									OFFSET 0.000000 0.000000 0.000000
								}
							}
						}
					}
				}
			}
		}
	}
	JOINT joint_14
	{
		OFFSET 1.244965 -96.891136 -118.152039
		CHANNELS 3 Zrotation Yrotation Xrotation
		JOINT joint_15
		{
			OFFSET -2.982971 -16.401871 -443.439026
			CHANNELS 3 Zrotation Yrotation Xrotation
			JOINT joint_16
			{
				OFFSET -42.052063 -15.386002 -460.966980
				CHANNELS 3 Zrotation Yrotation Xrotation
				JOINT joint_17
				{
					OFFSET 177.916595 102.818184 -88.655001
					CHANNELS 3 Zrotation Yrotation Xrotation
					End Site
					{
						OFFSET 0.000000 0.000000 0.000000
					}
				}
			}
		}
	}
	JOINT joint_18
	{
		OFFSET 1.788635 96.476997 -118.463074
		CHANNELS 3 Zrotation Yrotation Xrotation
		JOINT joint_19
		{
			OFFSET -9.555542 8.093691 -443.574951
			CHANNELS 3 Zrotation Yrotation Xrotation
			JOINT joint_20
			{
				OFFSET -48.427551 9.415819 -460.500023
				CHANNELS 3 Zrotation Yrotation Xrotation
				JOINT joint_21
				{
					OFFSET 204.978119 20.223980 -87.523996
					CHANNELS 3 Zrotation Yrotation Xrotation
					End Site
					{
						OFFSET 0.000000 0.000000 0.000000
					}
				}
			}
		}
	}
}
MOTION
Frames: 8
Frame Time: 0.016667
108.025047 -118.117020 1159.427979 -13.868599 4.606843 3.371551 -0.032538 -6.038191 -10.951594 1.359448 0.623410 2.007678 1.232375 -1.469936 -1.639323 0.547272 1.555786 -1.990693 0.000000 0.000000 0.000000 8.798182 4.062993 -3.665282 -12.612766 3.027596 -8.141209 -6.122950 -72.458261 58.395056 0.000000 0.000000 0.000000 5.783783 3.329783 17.676619 -0.754140 2.586797 -0.386038 -0.430521 8.354950 -0.711036 0.000000 0.000000 0.000000 -3.881326 -27.019436 -5.763472 -7.076319 49.426041 -3.296771 -25.093681 8.015253 -15.276054 0.000000 0.000000 0.000000 -5.186030 -2.128882 -3.877078 -4.591327 15.211327 -4.114751 -6.622634 8.083765 -3.443339 0.000000 0.000000 0.000000 
126.557739 -119.838028 1160.098022 -13.175100 4.121255 3.346404 0.118279 -6.033812 -10.618028 1.597431 0.634953 2.012982 1.478314 -1.456882 -1.655712 0.685730 0.967883 -2.510962 0.000000 0.000000 0.000000 9.354080 2.384104 -2.210032 -18.018551 1.793202 -9.003586 -10.534255 -67.734742 74.753571 0.000000 0.000000 0.000000 5.131090 1.735901 15.225715 1.318747 1.164280 2.228426 1.783179 10.668252 1.197008 0.000000 0.000000 0.000000 -4.082773 -28.018640 -6.031150 -7.368689 50.592641 -2.898748 -26.557391 7.624705 -15.535370 0.000000 0.000000 0.000000 -5.837837 -2.896156 -2.914987 -4.976547 18.265107 -5.945177 -8.276797 10.166016 -4.267500 0.000000 0.000000 0.000000 
144.171295 -122.218307 1160.333008 -11.882176 3.755898 3.082571 0.432070 -5.771820 -10.143536 1.730419 0.704225 2.001767 1.611716 -1.353164 -1.610430 0.828616 0.399467 -3.039796 0.000000 0.000000 0.000000 9.882904 1.447579 -1.117299 -20.016656 1.079628 -9.601885 -12.946365 -55.080958 84.891153 0.000000 0.000000 0.000000 4.266728 -0.232621 12.685709 3.391503 -0.507637 4.529203 4.001906 12.616145 3.118255 0.000000 0.000000 0.000000 -4.569674 -28.322932 -6.049908 -8.150268 49.578961 -3.117133 -26.237318 6.566881 -14.902203 0.000000 0.000000 0.000000 -6.607642 -4.599092 -1.100382 -5.417364 22.501155 -8.414680 -10.909327 12.237604 -5.439029 0.000000 0.000000 0.000000 
160.627899 -125.444534 1159.645996 -9.992297 3.718609 2.444185 1.081763 -5.339871 -9.367386 1.795137 0.857798 1.881921 1.666182 -1.152519 -1.477067 0.961811 0.222944 -3.532840 0.000000 0.000000 0.000000 10.172223 1.770240 -1.107228 -20.296543 1.308332 -10.391881 -13.869213 -47.429182 89.076998 0.000000 0.000000 0.000000 3.442900 -2.478369 10.656725 4.990317 -2.449700 5.686656 5.696399 13.386226 4.646355 0.000000 0.000000 0.000000 -5.196755 -27.513107 -5.560128 -9.457565 44.360248 -4.482069 -23.074313 5.147790 -13.175647 0.000000 0.000000 0.000000 -7.337376 -7.511372 1.803296 -6.038289 28.273922 -11.473366 -15.171981 14.148104 -7.151983 0.000000 0.000000 0.000000 
176.143555 -129.539017 1158.390015 -7.076373 3.743397 1.264476 1.771910 -4.242882 -7.786432 1.744995 0.855194 1.503869 1.594850 -0.842406 -1.281095 1.080663 0.324764 -3.998733 0.000000 0.000000 0.000000 10.243586 3.058806 -1.900950 -20.427590 2.434847 -11.321010 -14.662769 -43.180770 91.121127 0.000000 0.000000 0.000000 2.296869 -4.940547 8.685002 6.362623 -4.558593 6.001848 7.116628 13.320560 5.985191 0.000000 0.000000 0.000000 -5.991851 -24.627928 -4.360139 -10.820391 33.678447 -6.265988 -18.299483 4.477784 -11.110865 0.000000 0.000000 0.000000 -7.836898 -11.549002 5.707000 -7.153739 35.616697 -14.370333 -21.746147 17.129813 -9.730201 0.000000 0.000000 0.000000 
190.109131 -133.509003 1156.010010 -3.692331 3.348516 0.434319 1.884982 -2.395698 -6.644165 1.644351 0.391971 1.286000 1.477163 -0.580954 -1.086041 1.200692 0.578793 -4.476622 0.000000 0.000000 0.000000 10.377874 4.331000 -3.055120 -20.364115 3.622849 -12.008878 -15.221214 -39.267107 92.116384 0.000000 0.000000 0.000000 1.405076 -7.133469 7.022979 7.228842 -6.475227 6.034500 7.999032 12.580545 6.837738 0.000000 0.000000 0.000000 -6.702552 -20.587356 -3.630602 -11.333010 23.038903 -7.311961 -15.144564 5.340829 -10.228400 0.000000 0.000000 0.000000 -7.997155 -15.253509 8.790831 -8.445077 42.031508 -16.018057 -28.066151 19.835447 -12.137912 0.000000 0.000000 0.000000 
201.630768 -136.567688 1151.472046 -0.848513 2.944533 0.170020 1.665707 -1.276257 -6.281709 1.437016 0.109562 1.241071 1.277090 -0.435560 -0.954274 1.352483 0.855084 -5.064372 0.000000 0.000000 0.000000 11.111279 4.856862 -4.556217 -20.189627 4.163116 -12.544382 -15.528784 -33.992636 93.179497 0.000000 0.000000 0.000000 1.336010 -8.767143 6.264953 7.299141 -8.030684 6.028465 8.065340 11.393679 6.882485 0.000000 0.000000 0.000000 -6.980424 -17.984880 -3.660009 -11.368978 19.186438 -7.819200 -14.289251 4.701078 -9.352392 0.000000 0.000000 0.000000 -8.126096 -18.507193 11.122514 -9.507427 46.532117 -17.429342 -31.954209 19.818517 -13.415409 0.000000 0.000000 0.000000 
210.935822 -139.092438 1144.984009 1.688661 2.668943 -0.001035 1.402533 -0.840547 -5.970128 1.076820 0.110940 1.105121 0.926629 -0.337608 -0.882039 1.538777 1.180830 -5.774573 0.000000 0.000000 0.000000 12.308170 5.015145 -6.405233 -20.076760 4.344168 -13.383232 -15.810207 -28.371586 94.320070 0.000000 0.000000 0.000000 1.774085 -10.055144 6.323168 6.738878 -9.373918 5.849425 7.464305 9.917129 6.277314 0.000000 0.000000 0.000000 -6.968144 -16.322783 -3.767746 -11.362708 19.862560 -8.171322 -14.350906 2.073292 -7.735704 0.000000 0.000000 0.000000 -8.430157 -21.905790 13.589454 -10.644822 50.130593 -19.293076 -34.463124 17.726365 -14.025566 0.000000 0.000000 0.000000 
